<svg xmlns="http://www.w3.org/2000/svg" viewBox="0 0 242 64" fill="none">
  <defs>
    <linearGradient id="onion" x1="12" y1="9" x2="52" y2="58" gradientUnits="userSpaceOnUse">
      <stop stop-color="#b9a4ff"/>
      <stop offset="1" stop-color="#7162ce"/>
    </linearGradient>
  </defs>
  <path d="M32 8c0 11-21 13-21 29a21 21 0 0 0 42 0C53 21 32 19 32 8Z" fill="url(#onion)"/>
  <path d="M32 21c-1 6-12 9-12 18a12 12 0 0 0 24 0c0-9-11-12-12-18Z" stroke="white" stroke-opacity=".94" stroke-width="2.5"/>
  <path d="M32 32c-1 3-5 5-5 9a5 5 0 0 0 10 0c0-4-4-6-5-9Z" fill="white" fill-opacity=".94"/>
  <path d="M32 11c0-6 4-8 9-8-1 5-4 8-9 8Z" fill="#92b8ae"/>
<text x="75" y="46" fill="#292d3e" font-family="Inter, Segoe UI, sans-serif" font-size="43" font-weight="700" letter-spacing="-1.8">Onion<tspan fill="#7863bb">.</tspan></text>
</svg>
